<svg width="300" height="300" viewBox="0 0 300 300" fill="none" xmlns="http://www.w3.org/2000/svg">
<g clip-path="url(#clip0_125_58)">
<circle cx="150" cy="150" r="150" fill="#4C0D6F"/>
<g clip-path="url(#clip1_125_58)">
<path d="M188.889 50H111.111C101.91 50 94.4097 58.5156 94.7569 68.8281C94.8264 70.8984 94.8958 72.9688 95 75H58.3333C53.7153 75 50 79.1797 50 84.375C50 120.547 61.6319 145.703 77.2569 162.773C92.6389 179.609 111.389 188.086 125.208 192.383C133.333 194.922 138.889 202.539 138.889 210.195C138.889 218.359 132.986 225 125.729 225H116.667C110.521 225 105.556 230.586 105.556 237.5C105.556 244.414 110.521 250 116.667 250H183.333C189.479 250 194.444 244.414 194.444 237.5C194.444 230.586 189.479 225 183.333 225H174.271C167.014 225 161.111 218.359 161.111 210.195C161.111 202.539 166.632 194.883 174.792 192.383C188.646 188.086 207.396 179.609 222.778 162.773C238.368 145.703 250 120.547 250 84.375C250 79.1797 246.285 75 241.667 75H205C205.104 72.9688 205.174 70.9375 205.243 68.8281C205.59 58.5156 198.09 50 188.889 50ZM66.9792 93.75H96.2847C99.4444 128.945 106.424 152.461 114.306 168.203C105.66 163.906 96.6667 157.852 88.8889 149.336C77.7778 137.188 68.75 119.648 67.0139 93.75H66.9792ZM211.146 149.336C203.368 157.852 194.375 163.906 185.729 168.203C193.611 152.461 200.59 128.945 203.75 93.75H233.056C231.285 119.648 222.257 137.188 211.181 149.336H211.146Z" fill="#EFB41C"/>
</g>
</g>
<defs>
<clipPath id="clip0_125_58">
<rect width="300" height="300" fill="white"/>
</clipPath>
<clipPath id="clip1_125_58">
<rect width="200" height="200" fill="white" transform="translate(50 50)"/>
</clipPath>
</defs>
</svg>
