<svg width="300" height="300" viewBox="0 0 300 300" fill="none" xmlns="http://www.w3.org/2000/svg">
<rect width="300" height="300" fill="#4A0F6A" fill-opacity="0.3"/>
<mask id="path-1-outside-1_123_46" maskUnits="userSpaceOnUse" x="7" y="88" width="278" height="139" fill="black">
<rect fill="white" x="7" y="88" width="278" height="139"/>
<path d="M71.82 217.8C62.94 217.8 54.66 216.18 46.98 212.94C39.3 209.58 32.58 204.96 26.82 199.08C21.06 193.08 16.56 186.18 13.32 178.38C10.08 170.58 8.46 162.24 8.46 153.36C8.46 144.36 10.08 136.02 13.32 128.34C16.56 120.54 21 113.7 26.64 107.82C32.4 101.94 39.06 97.38 46.62 94.14C54.3 90.9 62.58 89.28 71.46 89.28C80.34 89.28 88.56 90.9 96.12 94.14C103.8 97.38 110.52 101.94 116.28 107.82C122.04 113.7 126.48 120.54 129.6 128.34C132.84 136.14 134.46 144.54 134.46 153.54C134.46 162.42 132.84 170.76 129.6 178.56C126.48 186.36 122.04 193.2 116.28 199.08C110.64 204.96 103.98 209.58 96.3 212.94C88.74 216.18 80.58 217.8 71.82 217.8ZM131.58 224.82L73.08 166.32L84.06 155.34L142.38 213.84L131.58 224.82ZM71.46 201.6C80.34 201.6 88.2 199.56 95.04 195.48C101.88 191.28 107.22 185.58 111.06 178.38C115.02 171.06 117 162.72 117 153.36C117 146.4 115.86 140.04 113.58 134.28C111.42 128.4 108.3 123.3 104.22 118.98C100.14 114.66 95.34 111.36 89.82 109.08C84.3 106.68 78.18 105.48 71.46 105.48C62.58 105.48 54.72 107.52 47.88 111.6C41.04 115.68 35.64 121.32 31.68 128.52C27.84 135.72 25.92 144 25.92 153.36C25.92 160.32 27.06 166.8 29.34 172.8C31.62 178.68 34.74 183.78 38.7 188.1C42.78 192.3 47.58 195.6 53.1 198C58.74 200.4 64.86 201.6 71.46 201.6ZM161.889 216V91.08H173.769L226.689 178.02H218.589L271.509 91.08H283.389V216H266.469V120.78L270.429 121.86L228.669 190.44H216.789L175.029 121.86L178.809 120.78V216H161.889Z"/>
</mask>
<path d="M71.82 217.8C62.94 217.8 54.66 216.18 46.98 212.94C39.3 209.58 32.58 204.96 26.82 199.08C21.06 193.08 16.56 186.18 13.32 178.38C10.08 170.58 8.46 162.24 8.46 153.36C8.46 144.36 10.08 136.02 13.32 128.34C16.56 120.54 21 113.7 26.64 107.82C32.4 101.94 39.06 97.38 46.62 94.14C54.3 90.9 62.58 89.28 71.46 89.28C80.34 89.28 88.56 90.9 96.12 94.14C103.8 97.38 110.52 101.94 116.28 107.82C122.04 113.7 126.48 120.54 129.6 128.34C132.84 136.14 134.46 144.54 134.46 153.54C134.46 162.42 132.84 170.76 129.6 178.56C126.48 186.36 122.04 193.2 116.28 199.08C110.64 204.96 103.98 209.58 96.3 212.94C88.74 216.18 80.58 217.8 71.82 217.8ZM131.58 224.82L73.08 166.32L84.06 155.34L142.38 213.84L131.58 224.82ZM71.46 201.6C80.34 201.6 88.2 199.56 95.04 195.48C101.88 191.28 107.22 185.58 111.06 178.38C115.02 171.06 117 162.72 117 153.36C117 146.4 115.86 140.04 113.58 134.28C111.42 128.4 108.3 123.3 104.22 118.98C100.14 114.66 95.34 111.36 89.82 109.08C84.3 106.68 78.18 105.48 71.46 105.48C62.58 105.48 54.72 107.52 47.88 111.6C41.04 115.68 35.64 121.32 31.68 128.52C27.84 135.72 25.92 144 25.92 153.36C25.92 160.32 27.06 166.8 29.34 172.8C31.62 178.68 34.74 183.78 38.7 188.1C42.78 192.3 47.58 195.6 53.1 198C58.74 200.4 64.86 201.6 71.46 201.6ZM161.889 216V91.08H173.769L226.689 178.02H218.589L271.509 91.08H283.389V216H266.469V120.78L270.429 121.86L228.669 190.44H216.789L175.029 121.86L178.809 120.78V216H161.889Z" fill="#C6A9E9"/>
<path d="M46.98 212.94L46.5791 213.856L46.5913 213.861L46.98 212.94ZM26.82 199.08L26.0986 199.773L26.1056 199.78L26.82 199.08ZM13.32 178.38L12.3965 178.764L12.3965 178.764L13.32 178.38ZM13.32 128.34L14.2414 128.729L14.2435 128.724L13.32 128.34ZM26.64 107.82L25.9256 107.12L25.9183 107.128L26.64 107.82ZM46.62 94.14L46.2313 93.2186L46.2261 93.2208L46.62 94.14ZM96.12 94.14L95.7261 95.0592L95.7313 95.0614L96.12 94.14ZM116.28 107.82L115.566 108.52L115.566 108.52L116.28 107.82ZM129.6 128.34L128.671 128.711L128.677 128.724L129.6 128.34ZM129.6 178.56L128.676 178.176L128.672 178.189L129.6 178.56ZM116.28 199.08L115.566 198.38L115.558 198.388L116.28 199.08ZM96.3 212.94L96.6939 213.859L96.7008 213.856L96.3 212.94ZM131.58 224.82L130.873 225.527L131.586 226.24L132.293 225.521L131.58 224.82ZM73.08 166.32L72.3729 165.613L71.6658 166.32L72.3729 167.027L73.08 166.32ZM84.06 155.34L84.7682 154.634L84.0611 153.925L83.3529 154.633L84.06 155.34ZM142.38 213.84L143.093 214.541L143.787 213.835L143.088 213.134L142.38 213.84ZM95.04 195.48L95.5523 196.339L95.5633 196.332L95.04 195.48ZM111.06 178.38L110.18 177.904L110.178 177.909L111.06 178.38ZM113.58 134.28L112.641 134.625L112.646 134.636L112.65 134.648L113.58 134.28ZM104.22 118.98L104.947 118.293L104.947 118.293L104.22 118.98ZM89.82 109.08L89.4213 109.997L89.4297 110.001L89.4382 110.004L89.82 109.08ZM47.88 111.6L47.3677 110.741L47.3677 110.741L47.88 111.6ZM31.68 128.52L30.8037 128.038L30.7976 128.049L31.68 128.52ZM29.34 172.8L28.4052 173.155L28.4076 173.162L29.34 172.8ZM38.7 188.1L37.9628 188.776L37.9726 188.786L37.9827 188.797L38.7 188.1ZM53.1 198L52.7013 198.917L52.7084 198.92L53.1 198ZM71.82 216.8C63.0647 216.8 54.9178 215.203 47.3687 212.019L46.5913 213.861C54.4022 217.157 62.8153 218.8 71.82 218.8V216.8ZM47.3808 212.024C39.816 208.714 33.203 204.167 27.5344 198.38L26.1056 199.78C31.957 205.753 38.784 210.446 46.5792 213.856L47.3808 212.024ZM27.5414 198.387C21.8687 192.478 17.4366 185.684 14.2435 177.996L12.3965 178.764C15.6834 186.676 20.2513 193.682 26.0986 199.773L27.5414 198.387ZM14.2435 177.996C11.0566 170.324 9.46 162.115 9.46 153.36H7.46C7.46 162.365 9.10343 170.836 12.3965 178.764L14.2435 177.996ZM9.46 153.36C9.46 144.483 11.0573 136.276 14.2414 128.729L12.3986 127.951C9.10272 135.764 7.46 144.237 7.46 153.36H9.46ZM14.2435 128.724C17.4377 121.034 21.8106 114.299 27.3617 108.512L25.9183 107.128C20.1894 113.101 15.6823 120.046 12.3965 127.956L14.2435 128.724ZM27.3544 108.52C33.023 102.733 39.5741 98.2476 47.0139 95.0591L46.2261 93.2208C38.5459 96.5124 31.777 101.147 25.9256 107.12L27.3544 108.52ZM47.0087 95.0614C54.5578 91.8766 62.7047 90.28 71.46 90.28V88.28C62.4553 88.28 54.0422 89.9234 46.2313 93.2186L47.0087 95.0614ZM71.46 90.28C80.2155 90.28 88.3002 91.8766 95.7261 95.0591L96.5139 93.2208C88.8198 89.9234 80.4645 88.28 71.46 88.28V90.28ZM95.7313 95.0614C103.291 98.2505 109.9 102.736 115.566 108.52L116.994 107.12C111.14 101.144 104.309 96.5095 96.5087 93.2186L95.7313 95.0614ZM115.566 108.52C121.231 114.304 125.599 121.031 128.672 128.711L130.528 127.969C127.361 120.049 122.849 113.096 116.994 107.12L115.566 108.52ZM128.677 128.724C131.863 136.394 133.46 144.663 133.46 153.54H135.46C135.46 144.417 133.817 135.886 130.524 127.956L128.677 128.724ZM133.46 153.54C133.46 162.295 131.863 170.504 128.677 178.176L130.524 178.944C133.817 171.016 135.46 162.545 135.46 153.54H133.46ZM128.672 178.189C125.599 185.869 121.231 192.596 115.566 198.38L116.994 199.78C122.849 193.804 127.361 186.851 130.528 178.931L128.672 178.189ZM115.558 198.388C110.012 204.17 103.462 208.715 95.8992 212.024L96.7008 213.856C104.498 210.445 111.268 205.75 117.002 199.772L115.558 198.388ZM95.9061 212.021C88.4785 215.204 80.4535 216.8 71.82 216.8V218.8C80.7065 218.8 89.0015 217.156 96.6939 213.859L95.9061 212.021ZM132.287 224.113L73.7871 165.613L72.3729 167.027L130.873 225.527L132.287 224.113ZM73.7871 167.027L84.7671 156.047L83.3529 154.633L72.3729 165.613L73.7871 167.027ZM83.3518 156.046L141.672 214.546L143.088 213.134L84.7682 154.634L83.3518 156.046ZM141.667 213.139L130.867 224.119L132.293 225.521L143.093 214.541L141.667 213.139ZM71.46 202.6C80.4991 202.6 88.5401 200.522 95.5523 196.339L94.5277 194.621C87.8599 198.598 80.1809 200.6 71.46 200.6V202.6ZM95.5633 196.332C102.557 192.038 108.02 186.205 111.942 178.851L110.178 177.909C106.42 184.955 101.203 190.522 94.5167 194.628L95.5633 196.332ZM111.94 178.856C115.988 171.372 118 162.865 118 153.36H116C116 162.575 114.052 170.748 110.18 177.904L111.94 178.856ZM118 153.36C118 146.289 116.842 139.803 114.51 133.912L112.65 134.648C114.878 140.277 116 146.511 116 153.36H118ZM114.519 133.935C112.315 127.935 109.125 122.717 104.947 118.293L103.493 119.667C107.475 123.883 110.525 128.865 112.641 134.625L114.519 133.935ZM104.947 118.293C100.77 113.87 95.8517 110.489 90.2018 108.156L89.4382 110.004C94.8283 112.231 99.5105 115.45 103.493 119.667L104.947 118.293ZM90.2187 108.163C84.559 105.702 78.3012 104.48 71.46 104.48V106.48C78.0588 106.48 84.041 107.658 89.4213 109.997L90.2187 108.163ZM71.46 104.48C62.4209 104.48 54.3799 106.558 47.3677 110.741L48.3923 112.459C55.0601 108.482 62.7391 106.48 71.46 106.48V104.48ZM47.3677 110.741C40.3701 114.915 34.8466 120.688 30.8038 128.038L32.5562 129.002C36.4334 121.952 41.7099 116.445 48.3923 112.459L47.3677 110.741ZM30.7976 128.049C26.8697 135.414 24.92 143.86 24.92 153.36H26.92C26.92 144.14 28.8103 136.026 32.5624 128.991L30.7976 128.049ZM24.92 153.36C24.92 160.431 26.0786 167.033 28.4052 173.155L30.2748 172.445C28.0414 166.567 26.92 160.209 26.92 153.36H24.92ZM28.4076 173.162C30.7292 179.149 33.9126 184.357 37.9628 188.776L39.4372 187.424C35.5674 183.203 32.5108 178.211 30.2724 172.438L28.4076 173.162ZM37.9827 188.797C42.1561 193.093 47.0652 196.467 52.7013 198.917L53.4987 197.083C48.0948 194.733 43.4039 191.507 39.4173 187.403L37.9827 188.797ZM52.7084 198.92C58.4815 201.377 64.7359 202.6 71.46 202.6V200.6C64.9841 200.6 58.9985 199.423 53.4916 197.08L52.7084 198.92ZM161.889 216H160.889V217H161.889V216ZM161.889 91.08V90.08H160.889V91.08H161.889ZM173.769 91.08L174.623 90.5601L174.331 90.08H173.769V91.08ZM226.689 178.02V179.02H228.468L227.543 177.5L226.689 178.02ZM218.589 178.02L217.735 177.5L216.81 179.02H218.589V178.02ZM271.509 91.08V90.08H270.947L270.655 90.5601L271.509 91.08ZM283.389 91.08H284.389V90.08H283.389V91.08ZM283.389 216V217H284.389V216H283.389ZM266.469 216H265.469V217H266.469V216ZM266.469 120.78L266.732 119.815L265.469 119.471V120.78H266.469ZM270.429 121.86L271.283 122.38L271.974 121.245L270.692 120.895L270.429 121.86ZM228.669 190.44V191.44H229.231L229.523 190.96L228.669 190.44ZM216.789 190.44L215.935 190.96L216.227 191.44H216.789V190.44ZM175.029 121.86L174.754 120.898L173.492 121.259L174.175 122.38L175.029 121.86ZM178.809 120.78H179.809V119.454L178.534 119.818L178.809 120.78ZM178.809 216V217H179.809V216H178.809ZM162.889 216V91.08H160.889V216H162.889ZM161.889 92.08H173.769V90.08H161.889V92.08ZM172.915 91.5999L225.835 178.54L227.543 177.5L174.623 90.5601L172.915 91.5999ZM226.689 177.02H218.589V179.02H226.689V177.02ZM219.443 178.54L272.363 91.5999L270.655 90.5601L217.735 177.5L219.443 178.54ZM271.509 92.08H283.389V90.08H271.509V92.08ZM282.389 91.08V216H284.389V91.08H282.389ZM283.389 215H266.469V217H283.389V215ZM267.469 216V120.78H265.469V216H267.469ZM266.206 121.745L270.166 122.825L270.692 120.895L266.732 119.815L266.206 121.745ZM269.575 121.34L227.815 189.92L229.523 190.96L271.283 122.38L269.575 121.34ZM228.669 189.44H216.789V191.44H228.669V189.44ZM217.643 189.92L175.883 121.34L174.175 122.38L215.935 190.96L217.643 189.92ZM175.304 122.822L179.084 121.742L178.534 119.818L174.754 120.898L175.304 122.822ZM177.809 120.78V216H179.809V120.78H177.809ZM178.809 215H161.889V217H178.809V215Z" fill="#D4B4D7" mask="url(#path-1-outside-1_123_46)"/>
</svg>
